<svg id="katman_1" data-name="katman 1" xmlns="http://www.w3.org/2000/svg" xmlns:xlink="http://www.w3.org/1999/xlink" viewBox="0 0 544.08 545.08"><defs><style>.cls-1{fill:#e94e1b;stroke:url(#Adsız_degrade_16);}.cls-1,.cls-2,.cls-3,.cls-4,.cls-5,.cls-6{stroke-miterlimit:10;fill-rule:evenodd;}.cls-2{fill:url(#Turuncu_Sarı);stroke:url(#Adsız_degrade_16-2);}.cls-3{fill:#e6332a;stroke:url(#Adsız_degrade_16-3);}.cls-4,.cls-6{fill:#be1622;}.cls-4{stroke:url(#Soluk_Mavi);}.cls-5{fill:url(#Adsız_degrade_23);stroke:url(#Adsız_degrade_16-4);}.cls-6{stroke:url(#Adsız_degrade_16-5);}</style><linearGradient id="Adsız_degrade_16" y1="377.8" x2="272.54" y2="377.8" gradientUnits="userSpaceOnUse"><stop offset="0" stop-color="#f28d46"/><stop offset="0.06" stop-color="#ee7438"/><stop offset="0.13" stop-color="#eb612e"/><stop offset="0.21" stop-color="#ea5628"/><stop offset="0.28" stop-color="#e95226"/><stop offset="0.67" stop-color="#bf5217"/><stop offset="0.89" stop-color="#e95f32"/><stop offset="1" stop-color="#e3312d"/></linearGradient><linearGradient id="Turuncu_Sarı" x1="210.72" y1="272.54" x2="272.04" y2="272.54" gradientUnits="userSpaceOnUse"><stop offset="0" stop-color="#ffef26"/><stop offset="0.02" stop-color="#ffea21"/><stop offset="0.1" stop-color="#fed70f"/><stop offset="0.19" stop-color="#fdcc04"/><stop offset="0.28" stop-color="#fdc800"/><stop offset="0.67" stop-color="#f18f34"/><stop offset="0.89" stop-color="#e95f32"/><stop offset="1" stop-color="#e3312d"/></linearGradient><linearGradient id="Adsız_degrade_16-2" x1="210.02" y1="272.54" x2="272.54" y2="272.54" xlink:href="#Adsız_degrade_16"/><linearGradient id="Adsız_degrade_16-3" x1="105.01" y1="114.78" x2="272.54" y2="114.78" xlink:href="#Adsız_degrade_16"/><linearGradient id="Soluk_Mavi" x1="271.54" y1="377.8" x2="544.08" y2="377.8" gradientUnits="userSpaceOnUse"><stop offset="0" stop-color="#2581c4"/><stop offset="1" stop-color="#2581c4" stop-opacity="0"/></linearGradient><linearGradient id="Adsız_degrade_23" x1="272.04" y1="220.04" x2="438.37" y2="220.04" gradientUnits="userSpaceOnUse"><stop offset="0" stop-color="#ffef26"/><stop offset="0" stop-color="#feeb26"/><stop offset="0" stop-color="#f7ba28"/><stop offset="0" stop-color="#f19029"/><stop offset="0" stop-color="#ec6e2b"/><stop offset="0" stop-color="#e8532c"/><stop offset="0" stop-color="#e5402c"/><stop offset="0" stop-color="#e4352d"/><stop offset="0" stop-color="#e3312d"/><stop offset="0.32" stop-color="#f18f34"/><stop offset="0.57" stop-color="#e95f32"/><stop offset="1" stop-color="#fdc800"/></linearGradient><linearGradient id="Adsız_degrade_16-4" x1="271.54" y1="220.29" x2="439.07" y2="220.29" xlink:href="#Adsız_degrade_16"/><linearGradient id="Adsız_degrade_16-5" x1="271.54" y1="62.53" x2="334.07" y2="62.53" xlink:href="#Adsız_degrade_16"/></defs><polygon class="cls-1" points="0.71 272.54 62.03 211.22 272.04 421.24 272.04 543.87 0.71 272.54 0.71 272.54"/><polygon class="cls-2" points="210.72 272.54 272.04 211.22 272.04 333.86 210.72 272.54 210.72 272.54"/><polygon class="cls-3" points="105.72 167.53 272.04 1.21 272.04 123.84 167.03 228.85 105.72 167.53 105.72 167.53"/><polygon class="cls-4" points="272.04 421.24 482.06 211.22 543.37 272.54 272.04 543.87 272.04 421.24 272.04 421.24"/><polygon class="cls-5" points="272.04 211.22 377.05 106.22 438.37 167.53 272.04 333.86 272.04 211.22 272.04 211.22"/><polygon class="cls-6" points="272.04 1.21 333.36 62.53 272.04 123.84 272.04 1.21 272.04 1.21"/></svg>